<?xml version="1.0" standalone="no"?>
<!DOCTYPE svg PUBLIC "-//W3C//DTD SVG 20010904//EN"
 "http://www.w3.org/TR/2001/REC-SVG-20010904/DTD/svg10.dtd">
<svg version="1.0" xmlns="http://www.w3.org/2000/svg"
 width="92.000000pt" height="61.000000pt" viewBox="0 0 92.000000 61.000000"
 preserveAspectRatio="xMidYMid meet">

<g transform="translate(0.000000,61.000000) scale(0.100000,-0.100000)"
fill="#000000" stroke="none">
<path d="M695 601 c-87 -21 -169 -92 -205 -177 -26 -60 -25 -80 2 -29 22 44
82 110 113 127 11 6 -1 -12 -27 -39 -70 -76 -136 -225 -126 -285 4 -21 5 -20
13 7 12 48 53 94 119 137 58 38 59 40 26 34 -39 -7 -34 -4 54 32 51 21 91 53
77 61 -6 4 12 22 42 42 28 18 52 39 52 46 0 7 6 18 13 24 6 7 12 17 12 21 0
10 -123 9 -165 -1z"/>
<path d="M70 294 c-43 -128 -59 -189 -52 -196 6 -6 84 -14 174 -18 90 -4 171
-11 181 -15 9 -4 17 -4 17 -1 0 18 -98 47 -186 56 -117 12 -134 17 -134 36 0
16 -1 16 188 -7 45 -5 90 -12 100 -15 9 -2 4 2 -13 10 -16 8 -81 22 -142 31
-85 13 -113 21 -113 32 0 10 6 13 17 9 9 -4 61 -11 115 -16 53 -5 109 -12 123
-16 14 -3 25 -4 25 0 0 8 -68 25 -155 36 -95 13 -115 18 -115 30 0 5 24 7 53
4 90 -9 193 -23 213 -29 10 -3 3 2 -16 11 -28 13 -188 43 -235 44 -5 0 -4 5 2
11 8 8 42 8 122 0 61 -7 119 -14 128 -16 10 -3 4 1 -13 9 -17 8 -71 20 -120
26 -101 14 -134 30 -59 30 50 0 165 -15 201 -25 10 -3 4 2 -15 10 -18 9 -72
21 -120 27 -88 11 -118 22 -88 34 18 6 190 -10 222 -22 14 -5 17 -4 10 4 -6 6
-59 19 -118 29 -72 11 -107 21 -107 30 0 7 2 13 5 13 28 0 212 -33 228 -41 21
-10 21 -10 -1 10 -18 16 -213 71 -251 71 -5 0 -37 -84 -71 -186z"/>
<path d="M768 464 c-15 -15 -12 -28 33 -162 27 -81 49 -149 49 -153 0 -12 -32
-20 -124 -29 -109 -11 -157 -24 -188 -51 l-23 -20 25 12 c14 7 95 15 188 19
90 4 168 12 174 18 7 7 -9 68 -52 196 -34 102 -63 186 -64 186 -1 0 -9 -7 -18
-16z"/>
<path d="M48 45 c-4 -20 0 -24 29 -30 19 -3 79 -1 135 6 55 6 124 9 152 6 50
-6 50 -6 23 9 -16 9 -65 17 -115 20 -48 2 -117 6 -153 9 -64 3 -67 3 -71 -20z"/>
<path d="M695 60 c-80 -4 -141 -12 -157 -21 -24 -13 -7 -14 157 -17 l182 -3
-4 25 c-4 19 -11 26 -27 24 -11 0 -80 -4 -151 -8z"/>
</g>
</svg>
