<?xml version="1.0" standalone="no"?>
<!DOCTYPE svg PUBLIC "-//W3C//DTD SVG 20010904//EN"
 "http://www.w3.org/TR/2001/REC-SVG-20010904/DTD/svg10.dtd">
<svg version="1.0" xmlns="http://www.w3.org/2000/svg"
 width="533.000000pt" height="356.000000pt" viewBox="0 0 533.000000 356.000000"
 preserveAspectRatio="xMidYMid meet">

<g transform="translate(0.000000,356.000000) scale(0.100000,-0.100000)"
fill="#000000" stroke="none">
<path d="M4285 3539 c-27 -4 -90 -15 -140 -23 -148 -24 -194 -37 -371 -100
-144 -52 -307 -146 -452 -261 -34 -28 -183 -179 -218 -221 -106 -131 -180
-255 -256 -424 -12 -25 -27 -58 -34 -73 -8 -16 -14 -34 -14 -40 0 -7 -6 -24
-14 -39 -19 -35 -64 -191 -72 -248 -4 -25 -10 -49 -14 -55 -4 -5 -13 -41 -20
-80 -6 -38 -14 -82 -17 -97 -3 -16 -1 -28 4 -28 5 0 22 39 37 87 15 49 32 95
37 103 5 8 12 22 15 30 3 8 13 33 21 55 27 70 137 288 170 339 18 26 33 54 33
62 0 8 4 14 9 14 5 0 15 16 21 35 6 19 20 40 31 45 10 6 19 18 19 26 0 20 315
334 335 334 7 0 22 11 33 25 11 14 27 25 35 25 8 0 20 7 27 15 7 8 23 15 36
15 13 0 24 5 24 10 0 6 8 10 19 10 10 0 32 7 47 15 16 8 36 15 44 14 13 0 13
-1 0 -7 -37 -17 -60 -38 -60 -55 0 -14 -5 -17 -22 -13 -13 3 -17 3 -10 0 16
-7 -3 -34 -24 -34 -16 0 -374 -352 -374 -367 0 -6 -18 -30 -40 -54 -22 -24
-43 -53 -46 -63 -4 -11 -17 -31 -30 -45 -13 -14 -24 -30 -24 -35 0 -17 -34
-86 -42 -86 -4 0 -8 -6 -8 -14 0 -8 -7 -21 -15 -30 -17 -17 -65 -108 -65 -124
0 -5 -7 -15 -15 -22 -8 -7 -15 -27 -15 -45 0 -20 -6 -35 -15 -39 -8 -3 -15
-11 -15 -19 0 -7 -11 -37 -25 -65 -14 -29 -25 -60 -25 -69 0 -10 -7 -27 -15
-37 -8 -11 -15 -28 -15 -38 0 -9 -6 -32 -14 -50 -8 -18 -19 -53 -26 -78 -7
-25 -16 -53 -21 -62 -5 -9 -12 -36 -15 -60 -4 -24 -11 -50 -15 -60 -9 -16 -26
-105 -49 -243 -16 -98 -10 -259 10 -262 16 -3 50 60 50 91 0 10 11 27 25 38
25 20 34 61 15 73 -13 8 -13 102 0 110 6 3 10 15 10 26 0 11 7 22 15 25 8 4
15 14 15 23 0 9 18 34 40 56 21 22 39 47 40 56 0 19 259 279 278 279 7 0 30
16 50 35 20 19 45 38 55 41 10 3 29 16 44 30 14 13 31 24 37 24 6 0 26 14 45
30 18 17 38 30 44 30 5 0 20 11 33 25 13 14 29 25 37 25 8 0 20 7 27 15 7 8
20 15 30 15 10 0 23 7 30 15 7 8 18 15 24 15 14 0 126 56 140 70 6 6 19 10 30
10 12 0 26 4 33 8 18 11 -226 3 -283 -9 -32 -7 -78 -9 -120 -4 -66 7 -67 8
-39 19 17 7 68 20 115 30 47 9 99 21 116 27 17 5 36 9 43 9 7 0 27 6 44 14 18
8 53 19 79 26 26 7 53 19 59 26 6 8 20 14 31 14 10 0 21 7 24 15 4 8 17 15 29
15 13 0 25 3 27 8 5 10 67 42 84 42 8 0 17 7 20 15 4 8 17 15 30 15 13 0 24 4
24 9 0 5 10 13 23 17 12 4 36 17 53 30 17 13 36 24 42 24 16 0 233 220 227
230 -4 7 -112 -12 -143 -26 -9 -4 -34 -8 -55 -10 -36 -2 -37 -1 -23 15 9 10
16 23 16 29 0 15 13 15 27 1 8 -8 15 -6 25 10 7 11 20 21 29 21 19 0 79 29 97
47 7 7 18 13 23 13 6 0 20 11 33 25 13 14 30 25 39 25 9 0 20 7 25 16 5 9 12
15 15 15 25 -3 39 2 54 19 10 11 23 20 30 20 6 0 16 6 20 13 4 7 33 32 63 56
80 64 180 163 180 178 0 15 -32 17 -78 4 -39 -12 -42 -2 -4 20 97 57 251 207
252 246 0 13 -17 17 -135 33 -84 12 -539 11 -610 -1z"/>
<path d="M756 2795 c-4 -19 -13 -47 -21 -62 -8 -15 -15 -34 -15 -42 0 -15 -43
-149 -60 -186 -5 -11 -12 -31 -15 -45 -3 -14 -12 -41 -19 -60 -7 -19 -26 -75
-41 -125 -15 -49 -31 -99 -35 -110 -5 -11 -14 -36 -19 -55 -5 -19 -22 -66 -36
-105 -15 -38 -29 -79 -32 -90 -9 -37 -95 -310 -104 -330 -5 -11 -29 -83 -54
-160 -24 -77 -50 -153 -56 -170 -6 -16 -15 -46 -20 -65 -6 -19 -14 -44 -19
-55 -5 -11 -20 -54 -33 -95 -91 -281 -109 -337 -118 -353 -6 -10 -13 -41 -16
-68 -5 -45 -4 -49 15 -49 12 0 41 -7 64 -15 67 -22 231 -44 245 -32 8 6 18 6
25 0 39 -30 144 -36 698 -44 529 -7 747 -18 795 -39 11 -5 52 -13 90 -19 77
-11 232 -49 255 -62 8 -5 22 -12 30 -15 8 -3 27 -12 42 -20 64 -35 65 0 1 55
-27 23 -54 41 -61 41 -8 0 -21 8 -30 19 -10 10 -37 29 -62 41 -25 12 -52 26
-60 31 -53 29 -143 69 -156 69 -8 0 -25 5 -37 11 -26 15 -232 66 -278 70 -18
2 -39 6 -45 11 -5 4 -48 10 -95 13 -46 4 -93 10 -104 15 -11 5 -96 14 -190 20
-93 7 -208 15 -255 20 -256 25 -317 32 -331 40 -9 5 -34 12 -55 15 -22 4 -52
11 -69 16 -16 4 -42 11 -57 14 -26 5 -28 9 -28 55 0 29 5 52 13 57 7 4 18 20
24 36 7 15 19 27 27 27 8 0 65 -11 128 -24 63 -14 164 -27 224 -31 60 -3 118
-10 129 -15 11 -5 106 -14 210 -20 105 -6 240 -15 300 -20 172 -15 457 -58
482 -73 7 -4 31 -11 55 -16 24 -5 68 -19 98 -30 30 -12 62 -21 72 -21 9 0 23
-7 32 -15 8 -8 23 -15 34 -15 10 0 27 -9 36 -19 10 -10 27 -22 39 -25 16 -4 9
6 -24 37 -44 40 -63 54 -111 79 -13 6 -30 15 -38 19 -51 27 -100 49 -135 59
-22 7 -49 17 -60 23 -29 15 -244 67 -278 67 -15 0 -37 4 -47 10 -10 5 -54 15
-97 20 -43 6 -107 15 -143 19 -36 5 -110 14 -165 20 -55 7 -120 16 -145 21
-25 5 -81 12 -125 16 -44 3 -84 10 -90 14 -5 4 -37 11 -70 14 -65 8 -243 43
-257 52 -14 9 -9 68 8 92 8 12 25 22 36 22 31 0 140 -21 163 -31 23 -11 165
-26 370 -39 357 -24 632 -53 780 -83 123 -25 249 -60 270 -74 11 -7 30 -13 44
-13 13 0 32 -7 42 -16 10 -9 25 -14 34 -11 24 10 18 27 -9 27 -14 0 -33 10
-43 24 -10 13 -29 26 -41 30 -12 4 -22 11 -22 15 0 15 -199 91 -238 91 -15 0
-33 5 -38 10 -6 6 -35 15 -65 21 -30 5 -76 14 -104 20 -27 5 -88 15 -135 22
-47 8 -92 16 -100 20 -8 3 -64 11 -125 17 -230 23 -273 29 -375 44 -58 8 -141
23 -185 31 -44 9 -96 19 -115 21 -83 11 -83 11 -75 52 9 48 33 75 60 67 77
-22 312 -50 605 -70 469 -33 759 -78 862 -131 14 -8 33 -14 42 -14 8 0 34 -10
56 -21 23 -12 43 -20 45 -17 16 16 -113 118 -149 118 -5 0 -17 6 -25 14 -21
18 -166 66 -200 66 -15 0 -32 5 -37 10 -16 16 -129 36 -334 60 -58 6 -112 15
-121 20 -9 4 -67 11 -130 15 -63 4 -118 11 -124 15 -5 5 -55 13 -110 19 -106
12 -162 20 -288 42 l-79 13 7 35 c15 85 39 93 190 66 44 -8 106 -14 138 -15
31 0 65 -4 75 -10 9 -5 107 -14 217 -20 274 -14 415 -26 515 -44 47 -8 117
-20 155 -27 39 -6 84 -17 102 -25 17 -8 44 -14 60 -14 16 0 34 -5 41 -12 15
-15 81 -38 110 -38 12 0 25 -7 28 -15 6 -13 34 -22 34 -10 0 13 -73 75 -89 75
-10 0 -24 7 -31 15 -7 8 -21 15 -31 15 -11 0 -19 5 -19 10 0 6 -8 10 -19 10
-10 0 -24 7 -31 15 -7 8 -20 15 -30 15 -10 0 -23 6 -29 14 -6 8 -26 16 -44 19
-35 5 -193 43 -242 57 -16 5 -68 14 -115 21 -86 12 -129 17 -345 39 -66 7
-129 16 -140 21 -11 4 -60 12 -110 18 -119 13 -243 35 -278 49 -28 12 -29 22
-11 80 4 14 87 17 113 3 20 -11 227 -30 441 -41 238 -13 443 -30 475 -40 17
-5 59 -12 95 -16 36 -4 72 -10 81 -15 9 -4 60 -17 115 -29 54 -11 103 -25 108
-30 6 -6 22 -10 38 -10 15 0 31 -6 35 -13 4 -8 24 -17 43 -20 19 -3 29 -3 23
0 -7 2 -13 11 -13 18 0 27 -116 93 -230 130 -30 10 -71 23 -90 30 -67 25 -263
65 -316 65 -18 0 -43 4 -56 10 -20 9 -69 15 -253 36 -45 5 -260 31 -315 38
-108 14 -213 35 -223 45 -8 8 -7 26 4 68 l15 58 75 -3 c41 -2 92 -8 114 -13
22 -5 87 -9 144 -9 58 0 130 -4 160 -10 31 -5 124 -14 206 -19 313 -20 546
-68 742 -153 23 -10 46 -18 50 -18 5 0 24 -10 43 -23 19 -13 43 -27 53 -30 16
-6 16 -4 -3 23 -12 17 -30 30 -41 30 -10 0 -19 7 -19 15 0 9 -9 15 -21 15 -12
0 -37 15 -55 34 -33 34 -116 79 -164 90 -49 11 -85 18 -113 21 -16 2 -39 13
-51 24 -17 16 -35 21 -79 21 -31 0 -59 5 -62 10 -3 6 -38 10 -77 10 -63 0
-100 9 -159 40 -9 5 -40 7 -68 5 -28 -2 -53 0 -56 6 -4 5 -23 9 -43 9 -40 0
-235 24 -321 40 -30 6 -72 10 -92 10 -21 0 -41 5 -44 10 -3 6 -15 10 -25 10
-29 0 -31 12 -12 81 l17 64 40 -2 c22 -1 81 -11 130 -22 50 -11 108 -20 131
-21 23 0 54 -5 71 -10 16 -6 67 -15 114 -20 46 -5 107 -13 134 -19 28 -5 71
-10 97 -10 26 -1 67 -5 90 -10 24 -6 88 -17 143 -27 96 -15 155 -31 238 -60
20 -8 46 -14 56 -14 11 0 42 -11 69 -25 28 -14 54 -25 60 -25 5 0 15 -7 22
-15 7 -8 19 -15 27 -15 8 0 26 -9 40 -20 28 -22 43 -25 43 -11 0 16 -86 92
-157 138 -71 47 -221 123 -242 123 -7 0 -27 6 -44 14 -68 30 -286 89 -377 102
-25 4 -49 10 -55 14 -5 4 -32 11 -60 14 -27 4 -77 14 -110 21 -33 8 -105 24
-160 36 -236 52 -440 104 -467 119 -25 14 -25 14 -32 -25z"/>
<path d="M4541 2790 c-11 -19 -21 -39 -21 -44 0 -13 -138 -146 -152 -146 -7 0
-23 -8 -36 -18 l-22 -17 31 0 c29 0 33 -4 51 -55 10 -30 23 -69 27 -85 4 -17
12 -39 18 -50 6 -11 22 -60 38 -110 15 -49 33 -105 41 -123 8 -18 14 -37 14
-42 0 -5 5 -21 12 -37 6 -15 19 -55 29 -88 9 -33 23 -76 29 -95 7 -19 18 -51
25 -70 7 -19 25 -75 40 -125 15 -49 34 -103 40 -120 7 -16 25 -70 40 -120 15
-49 33 -102 41 -117 8 -14 14 -35 14 -46 0 -11 6 -33 14 -49 7 -15 26 -68 41
-118 15 -49 33 -103 40 -120 23 -55 37 -100 42 -132 5 -29 2 -33 -23 -38 -16
-3 -42 -10 -59 -15 -16 -5 -48 -12 -70 -16 -22 -3 -44 -10 -50 -14 -5 -4 -48
-11 -95 -14 -47 -4 -101 -11 -120 -16 -19 -5 -116 -14 -215 -21 -99 -6 -214
-15 -255 -20 -41 -6 -115 -14 -165 -20 -49 -5 -94 -14 -99 -19 -6 -6 -26 -10
-46 -10 -19 -1 -71 -10 -115 -21 -44 -11 -91 -23 -105 -25 -14 -3 -38 -12 -55
-19 -16 -7 -50 -19 -74 -26 -24 -7 -49 -19 -57 -26 -7 -7 -22 -13 -33 -13 -12
0 -21 -5 -21 -10 0 -6 -8 -13 -17 -17 -49 -16 -106 -48 -116 -64 -7 -11 -20
-19 -29 -19 -9 0 -40 -21 -68 -47 -76 -70 -44 -81 60 -21 20 11 28 14 75 26
22 6 65 18 95 26 71 19 170 35 295 47 55 6 108 15 117 20 10 5 207 9 450 10
515 1 812 17 973 52 179 40 175 38 175 69 0 15 -6 42 -14 60 -8 18 -35 101
-61 183 -26 83 -51 159 -56 170 -4 11 -13 40 -20 65 -6 25 -14 50 -19 55 -4 6
-12 28 -18 50 -5 22 -15 54 -21 70 -6 17 -32 93 -56 170 -25 77 -49 149 -54
160 -5 11 -30 88 -56 170 -26 83 -53 164 -61 182 -8 17 -14 39 -14 50 0 10 -6
30 -14 45 -8 15 -17 42 -21 60 -4 18 -13 47 -20 63 -7 17 -34 98 -60 180 -25
83 -51 159 -56 170 -5 11 -31 87 -57 170 l-49 150 -22 -35z"/>
<path d="M2270 986 c0 -2 7 -9 15 -16 12 -10 15 -10 15 4 0 9 -7 16 -15 16 -8
0 -15 -2 -15 -4z"/>
<path d="M4965 431 c-11 -5 -49 -12 -85 -15 -36 -4 -79 -12 -95 -17 -68 -21
-253 -31 -705 -38 -261 -5 -482 -12 -491 -15 -9 -4 -56 -11 -105 -16 -128 -13
-228 -30 -238 -41 -6 -5 -19 -9 -30 -9 -24 0 -82 -18 -118 -36 -14 -8 -33 -14
-41 -14 -8 0 -20 -7 -27 -15 -7 -8 -19 -15 -28 -15 -8 0 -23 -6 -31 -13 -9 -8
-32 -20 -51 -27 -31 -12 -95 -54 -125 -83 -16 -15 58 1 103 23 23 11 50 20 61
20 11 0 32 5 48 12 85 34 638 64 723 39 19 -6 98 -15 175 -21 134 -10 210 -17
430 -39 160 -16 502 -12 630 7 l110 17 -4 45 c-2 25 -9 61 -16 80 -7 19 -16
60 -19 92 -9 90 -18 100 -71 79z"/>
<path d="M328 418 c-28 -22 -88 -262 -70 -280 4 -4 57 -16 118 -25 162 -25
482 -23 744 5 432 47 543 53 810 48 140 -3 275 -10 300 -15 83 -17 175 -41
218 -58 23 -9 45 -14 47 -11 12 12 -9 38 -30 38 -12 0 -28 7 -35 15 -7 8 -18
15 -26 15 -7 0 -24 11 -38 25 -16 16 -36 25 -55 25 -17 0 -34 6 -38 14 -12 20
-60 42 -123 55 -30 7 -68 17 -85 23 -43 15 -116 28 -220 38 -49 5 -101 12
-115 16 -14 4 -232 10 -485 14 -447 8 -684 20 -735 40 -24 9 -132 30 -155 30
-6 0 -18 -6 -27 -12z"/>
</g>
</svg>
